<svg xmlns="http://www.w3.org/2000/svg" xmlns:xlink="http://www.w3.org/1999/xlink" width="31" height="31" viewBox="0 0 31 31"><defs><path id="dqsca" d="M36.07 18.52c7.47 0 13.55 6.07 13.55 13.55 0 7.47-6.08 13.55-13.55 13.55a13.57 13.57 0 0 1-13.55-13.55c0-7.48 6.07-13.55 13.55-13.55zm0 28.6c8.3 0 15.05-6.75 15.05-15.05S44.37 17 36.07 17 21 23.76 21 32.07c0 8.3 6.75 15.05 15.06 15.05z"/><path id="dqscb" d="M42.62 26.57l-1.06-1.06-5.5 5.49-5.49-5.49-1.06 1.06 5.49 5.5-5.49 5.48 1.06 1.07 5.5-5.5 5.48 5.5 1.07-1.06-5.5-5.5z"/></defs><g><g transform="translate(-21 -17)"><g><use fill="#494949" xlink:href="#dqsca"/></g><g><use fill="#494949" xlink:href="#dqscb"/></g></g></g></svg>