<svg xmlns="http://www.w3.org/2000/svg" xmlns:xlink="http://www.w3.org/1999/xlink" width="24" height="36" viewBox="0 0 24 36"><defs><path id="7vnba" d="M48 83h24v36H48z"/><path id="7vnbc" d="M68.62 117.53c2.35-5.83 1.88-12.6 1.78-13.68a.7.7 0 0 1-.03-.15 1.2 1.2 0 0 0-2.07-.69.75.75 0 0 1-.73.2.74.74 0 0 1-.53-.54.65.65 0 0 0-.03-.09.73.73 0 0 1-.03-.43c.03-.1.04-.19.04-.27a1.2 1.2 0 0 0-2.13-.75.74.74 0 0 1-.63.26l-.22-.02a.74.74 0 0 1-.51-.27.73.73 0 0 1-.17-.55 1.2 1.2 0 0 0-2.39-.14c-.03.2-.15.4-.33.5a.77.77 0 0 1-1.18-.62v-7.2c0-.03.03-.75-.4-1.2-.27-.27-.68-.4-1.23-.4-.5 0-.84.12-1.07.37-.45.51-.36 1.44-.35 1.44v12.4a.75.75 0 0 1-1.2.58l-2.86-2.23a.76.76 0 0 1-.07-.06 1.63 1.63 0 0 0-1.16-.48c-.9 0-1.63.73-1.63 1.62 0 .49.22.94.62 1.26a.7.7 0 0 1 .12.1c.63.59 4.23 4.1 6.86 11.04zm3.25-13.98c.03.33.86 8.24-2.07 15a.74.74 0 0 1-.71.45H56.6h-.02c-.3 0-.6-.19-.7-.49-2.71-7.46-6.68-10.95-6.72-10.99a3.04 3.04 0 0 1-1.16-2.4 3.1 3.1 0 0 1 3.12-3.08c.82 0 1.6.32 2.18.89l1.63 1.26V93.44c-.04-.31-.11-1.61.72-2.55.35-.4 1.02-.87 2.18-.87.98 0 1.75.29 2.3.87.87.9.83 2.11.82 2.25v5.07a2.7 2.7 0 0 1 3.67 1.3 2.69 2.69 0 0 1 3.81 1.76 2.7 2.7 0 0 1 3.39 2.1l.05.18zm-3.41 3.2c.4.03.73.37.7.77-.09 2.3-.38 4.5-.85 6.53a.74.74 0 0 1-.9.55.73.73 0 0 1-.55-.88c.45-1.95.73-4.06.82-6.26.02-.4.36-.71.78-.7zM49.08 93.24a.74.74 0 0 1-.74-.73c0-5.24 4.31-9.5 9.61-9.5s9.61 4.26 9.61 9.5c0 .4-.33.73-.74.73a.74.74 0 0 1-.74-.73 8.09 8.09 0 0 0-8.13-8.03 8.09 8.09 0 0 0-8.12 8.03c0 .4-.34.73-.75.73z"/><clipPath id="7vnbb"><use xlink:href="#7vnba"/></clipPath></defs><g><g transform="translate(-48 -83)"><g/><g clip-path="url(#7vnbb)"><use fill="#4b4e57" xlink:href="#7vnbc"/></g></g></g></svg>