<?xml version="1.0" encoding="UTF-8" standalone="no"?>
<svg xmlns:rdf="http://www.w3.org/1999/02/22-rdf-syntax-ns#" xmlns="http://www.w3.org/2000/svg" height="48" width="48" version="1.1" xmlns:cc="http://creativecommons.org/ns#" xmlns:dc="http://purl.org/dc/elements/1.1/" viewBox="0 0 48 48">
 <metadata>
  <rdf:RDF>
   <cc:Work rdf:about="">
    <dc:format>image/svg+xml</dc:format>
    <dc:type rdf:resource="http://purl.org/dc/dcmitype/StillImage"/>
    <dc:title/>
   </cc:Work>
  </rdf:RDF>
 </metadata>
 <path d="m28.388 44.463c0 1.952-1.616 3.537-3.613 3.537-1.9965 0-3.6131-1.5845-3.6131-3.5368s1.6166-3.5368 3.6131-3.5368 3.6131 1.5845 3.6131 3.5368zm-3.613-44.463c-2.2793 0-4.1292 1.8109-4.1292 4.0421s1.8499 4.0421 4.1292 4.0421 4.1292-1.8109 4.1292-4.0421-1.849-4.0421-4.129-4.0421zm20.646 21.726c1.4225 0 2.5787 1.1338 2.5787 2.5263 0 1.3945-1.1562 2.5263-2.5787 2.5263-1.4246 0-2.5787-1.1298-2.5787-2.5263 0-1.3925 1.1541-2.5263 2.5787-2.5263zm-45.421 2.527c0 2.2333 1.8499 4.0421 4.1292 4.0421s4.1292-1.8088 4.1292-4.0421c0-2.2312-1.8499-4.0421-4.1292-4.0421s-4.1292 1.81-4.1292 4.042zm39.227-16.169c1.1376 0 2.0646 0.90745 2.0646 2.0211 0 1.1176-0.92701 2.0251-2.0646 2.0211-1.1376 0-2.0646-0.90341-2.0646-2.017 0-1.1176 0.92701-2.0251 2.0646-2.0251zm0 27.284c1.7095 0 3.0969 1.3581 3.0969 3.0316 0 1.6734-1.3874 3.0336-3.101 3.0316-1.7054 0-3.0928-1.3561-3.0928-3.0296 0-1.6755 1.3874-3.0336 3.0969-3.0336zm-28.904-29.305c2.2793 0 4.1292 1.8109 4.1292 4.0421s-1.8499 4.0421-4.1313 4.0421c-2.2773 0-4.1271-1.8088-4.1271-4.0421s1.8499-4.0421 4.1292-4.0421zm0 28.295c2.2793 0 4.1292 1.8109 4.1292 4.0421s-1.8499 4.0421-4.1313 4.0421c-2.2773 0-4.1271-1.8088-4.1271-4.0421s1.8499-4.0421 4.1292-4.0421z" stroke-width="2.0427" fill="#0075c9"/>
</svg>
