<?xml version="1.0" encoding="UTF-8" standalone="no"?>
<svg xmlns:rdf="http://www.w3.org/1999/02/22-rdf-syntax-ns#" xmlns="http://www.w3.org/2000/svg" height="40" width="33.333" version="1.1" xmlns:cc="http://creativecommons.org/ns#" xmlns:dc="http://purl.org/dc/elements/1.1/" viewBox="0 0 33.333332 40">
 <metadata>
  <rdf:RDF>
   <cc:Work rdf:about="">
    <dc:format>image/svg+xml</dc:format>
    <dc:type rdf:resource="http://purl.org/dc/dcmitype/StillImage"/>
    <dc:title/>
   </cc:Work>
  </rdf:RDF>
 </metadata>
 <path stroke-width="1.6667" fill="#544f50" d="m15.603 3.3333c6.9267 0 4.3967 10 4.3967 10s10-2.75 10 4.095v19.239h-26.667v-33.334zm1.379-3.3333h-16.982v40h33.333v-23.977c0-3.985-11.08-16.023-16.351-16.023zm-6.235 28.768c0.576-0.545 1.553-1.078 2.903-1.59 0.61-1.208 1.218-2.538 1.697-3.72-0.404-0.843-0.662-1.731-0.774-2.646-0.41667-3.435 3.4717-3.1783 2.8817 0.02-0.11333 0.61333-0.38333 1.4733-0.805 2.56 0.61167 1.09 1.415 1.91 2.055 2.4533 0.87333-0.14 2.1183-0.28333 2.995-0.155 2.3267 0.34167 2.0317 2.9067-0.035 2.9067-1.0817 0-2.4383-0.845-3.2867-1.4933-1.2983 0.24-2.6883 0.60833-3.8833 1.03-0.38167 0.73333-0.89333 1.6683-1.3517 2.3267-1.905 2.7433-4.4167 0.21167-2.3967-1.6917zm1.998 0.092c-0.422 0.213-1.015 0.58-1.335 0.932-0.498 0.546-0.172 0.976 0.428 0.388 0.297-0.287 0.654-0.82 0.907-1.32zm7.4-2.0017c0.39167 0.26333 0.93 0.53833 1.5183 0.55 0.68667 0.01333 0.62833-0.435-0.13667-0.54667-0.33333-0.05-0.81333-0.05-1.3817-0.0033zm-4.912-0.213c0.547-0.182 1.727-0.457 2.022-0.525-0.03333-0.035-0.88-0.90667-1.1583-1.3867-0.22333 0.55833-0.84833 1.8783-0.86333 1.9117zm0.52333-6.6383c-0.095 0.49333 0.04833 1.285 0.215 1.7683 0.18833-0.395 0.425-1.3433 0.32833-1.8083-0.09333-0.465-0.43667-0.49833-0.54333 0.04z"/>
</svg>
