<?xml version="1.0" encoding="UTF-8" standalone="no"?>
<!-- Created with Inkscape (http://www.inkscape.org/) -->
<svg xmlns:rdf="http://www.w3.org/1999/02/22-rdf-syntax-ns#" xmlns="http://www.w3.org/2000/svg" height="6.35mm" width="6.35mm" version="1.1" xmlns:cc="http://creativecommons.org/ns#" xmlns:dc="http://purl.org/dc/elements/1.1/" viewBox="0 0 6.3499999 6.3499999">
 <metadata>
  <rdf:RDF>
   <cc:Work rdf:about="">
    <dc:format>image/svg+xml</dc:format>
    <dc:type rdf:resource="http://purl.org/dc/dcmitype/StillImage"/>
    <dc:title/>
   </cc:Work>
  </rdf:RDF>
 </metadata>
 <g transform="translate(-135.92 -106.35)">
  <path stroke-width=".26458" fill="#fff" d="m139.1 106.88c1.4589 0 2.6458 1.1869 2.6458 2.6458s-1.1869 2.6458-2.6458 2.6458-2.6458-1.1869-2.6458-2.6458 1.1869-2.6458 2.6458-2.6458zm0-0.52917c-1.7534 0-3.175 1.4216-3.175 3.175s1.4216 3.175 3.175 3.175 3.175-1.4216 3.175-3.175-1.4216-3.175-3.175-3.175zm1.5875 4.3757-1.215-1.2033 1.2028-1.2136-0.37465-0.37121-1.2025 1.2142-1.2139-1.202-0.37174 0.37174 1.2152 1.2044-1.2031 1.215 0.37174 0.37174 1.2052-1.216 1.2147 1.2039z"/>
 </g>
</svg>
